<svg width="98" height="52" viewBox="0 0 98 52" fill="none" xmlns="http://www.w3.org/2000/svg">
<path fill-rule="evenodd" clip-rule="evenodd" d="M36.5703 0.726074C36.018 0.726074 35.5703 1.17379 35.5703 1.72607V6.00103C35.5703 6.55331 36.018 7.00103 36.5703 7.00103H72.8973C83.0242 7.00103 90.9777 14.7977 90.9777 24.8905C90.9777 25.1761 91.2092 25.4076 91.4948 25.4076H96.757C97.0425 25.4076 97.274 25.1761 97.274 24.8905C97.274 11.4012 86.432 0.726074 72.8973 0.726074H36.5703Z" fill="#6B7B84" stroke="#80949F" stroke-width="0.5"/>
<path fill-rule="evenodd" clip-rule="evenodd" d="M7.10658 25.846C7.10658 25.6039 6.91035 25.4077 6.66829 25.4077H1.16412C0.922059 25.4077 0.72583 25.6039 0.72583 25.846C0.72583 39.4954 10.9491 50.7649 24.1685 51.5024L66.5101 51.5402C67.0628 51.5406 67.511 51.0928 67.511 50.5402V45.9605C67.511 45.4083 67.0633 44.9605 66.511 44.9605H25.6263C15.3901 44.9322 7.10658 36.4168 7.10658 25.846Z" fill="#6B7B84" stroke="#80949F" stroke-width="0.5"/>
<path fill-rule="evenodd" clip-rule="evenodd" d="M28.1413 39.9262C30.8801 39.9262 33.1614 39.3941 35.4147 38.2993L35.5702 38.1537V30.3193L34.7271 31.3987C33.1046 33.1716 30.9257 34.1475 28.4606 34.1475C23.869 34.1475 19.2573 31.1796 19.2573 25.5076C19.2573 21.2212 22.4379 16.6658 28.2991 16.6658C29.4686 16.6658 32.3128 16.9423 34.7229 19.5018L35.5702 20.5455V12.7465L35.4215 12.5991C33.1256 11.4485 30.7841 10.8892 28.1134 10.8892C23.5465 10.8892 19.9818 12.0915 17.1436 14.5627C15.3433 16.1115 12.3406 19.5823 12.3406 25.4261C12.3406 29.7468 13.8791 33.1213 17.1666 36.0482C20.225 38.73 23.616 39.9262 28.1413 39.9262Z" fill="#6B7B84"/>
<path d="M28.1413 39.9262C30.8801 39.9262 33.1614 39.3941 35.4147 38.2993L35.5702 38.1537V30.3193L34.7271 31.3987C33.1046 33.1716 30.9257 34.1475 28.4606 34.1475C23.869 34.1475 19.2573 31.1796 19.2573 25.5076C19.2573 21.2212 22.4379 16.6658 28.2991 16.6658C29.4686 16.6658 32.3128 16.9423 34.7229 19.5018L35.5702 20.5455V12.7465L35.4215 12.5991C33.1256 11.4485 30.7841 10.8892 28.1134 10.8892C23.5465 10.8892 19.9818 12.0915 17.1436 14.5627C15.3433 16.1115 12.3406 19.5823 12.3406 25.4261C12.3406 29.7468 13.8791 33.1213 17.1666 36.0482C20.225 38.73 23.616 39.9262 28.1413 39.9262" stroke="#80949F" stroke-width="0.5"/>
<path fill-rule="evenodd" clip-rule="evenodd" d="M47.911 17.4225H49.2753C50.5268 17.4225 51.9532 17.4908 53.0327 18.2266C53.5599 18.6032 54.4444 19.4749 54.4444 21.0582C54.4444 22.2283 53.9273 23.2774 53.0732 23.932C51.9782 24.7269 50.6767 24.6813 49.6308 24.6813H47.911V17.4225ZM50.9767 29.9516C54.2081 29.9516 56.7375 29.0196 58.494 27.2636C60.6547 25.1073 60.9777 22.1411 60.9777 20.5773C60.9777 18.904 60.5811 15.6404 57.9209 13.2773C55.7405 11.3666 53.414 10.8892 50.1322 10.8892H41.3777V39.9262H48.0363V29.9516H50.9767Z" fill="#6B7B84"/>
<path d="M47.911 17.4225V17.1725H47.661V17.4225H47.911ZM53.0327 18.2266L53.1781 18.0232L53.1735 18.0201L53.0327 18.2266ZM53.0732 23.932L53.2201 24.1344L53.2253 24.1304L53.0732 23.932ZM47.911 24.6813H47.661V24.9313H47.911V24.6813ZM58.494 27.2636L58.3174 27.0867L58.3173 27.0868L58.494 27.2636ZM57.9209 13.2773L58.087 13.0904L58.0857 13.0893L57.9209 13.2773ZM41.3777 10.8892V10.6392H41.1277V10.8892H41.3777ZM41.3777 39.9262H41.1277V40.1762H41.3777V39.9262ZM48.0363 39.9262V40.1762H48.2863V39.9262H48.0363ZM48.0363 29.9516V29.7016H47.7863V29.9516H48.0363ZM47.911 17.6725H49.2753V17.1725H47.911V17.6725ZM49.2753 17.6725C50.5325 17.6725 51.8837 17.746 52.8919 18.4332L53.1735 18.0201C52.0226 17.2355 50.5211 17.1725 49.2753 17.1725V17.6725ZM52.8874 18.4301C53.375 18.7784 54.1944 19.5832 54.1944 21.0582H54.6944C54.6944 19.3666 53.7447 18.428 53.178 18.0232L52.8874 18.4301ZM54.1944 21.0582C54.1944 22.1542 53.7106 23.1285 52.9211 23.7336L53.2253 24.1304C54.144 23.4263 54.6944 22.3023 54.6944 21.0582H54.1944ZM52.9264 23.7297C51.909 24.4682 50.697 24.4313 49.6308 24.4313V24.9313C50.6563 24.9313 52.0474 24.9855 53.2201 24.1343L52.9264 23.7297ZM49.6308 24.4313H47.911V24.9313H49.6308V24.4313ZM48.161 24.6813V17.4225H47.661V24.6813H48.161ZM50.9767 30.2016C54.2566 30.2016 56.8561 29.2545 58.6708 27.4404L58.3173 27.0868C56.6189 28.7847 54.1597 29.7016 50.9767 29.7016V30.2016ZM58.6706 27.4406C60.9027 25.2131 61.2277 22.1625 61.2277 20.5773H60.7277C60.7277 22.1197 60.4068 25.0016 58.3174 27.0867L58.6706 27.4406ZM61.2277 20.5773C61.2277 18.876 60.826 15.5236 58.087 13.0904L57.7549 13.4642C60.3361 15.7571 60.7277 18.9321 60.7277 20.5773H61.2277ZM58.0857 13.0893C55.8398 11.1212 53.4415 10.6392 50.1322 10.6392V11.1392C53.3865 11.1392 55.6412 11.612 57.7562 13.4653L58.0857 13.0893ZM50.1322 10.6392H41.3777V11.1392H50.1322V10.6392ZM41.1277 10.8892V39.9262H41.6277V10.8892H41.1277ZM41.3777 40.1762H48.0363V39.6762H41.3777V40.1762ZM48.2863 39.9262V29.9516H47.7863V39.9262H48.2863ZM48.0363 30.2016H50.9767V29.7016H48.0363V30.2016Z" fill="#80949F"/>
<path fill-rule="evenodd" clip-rule="evenodd" d="M80.9528 24.6025C79.5051 23.3198 77.4843 22.5763 75.1908 21.8051C73.5567 21.2364 72.6563 20.9232 72.056 20.3759C71.5822 19.9737 71.371 19.5371 71.371 18.96C71.371 17.696 72.2299 16.3451 74.6412 16.3451C76.2799 16.3451 77.6519 17.0458 78.7194 18.4268L79.1432 18.9752L82.6595 14.4994L82.3389 14.1783C80.1884 12.0262 77.3546 10.8892 74.1437 10.8892C67.6654 10.8892 64.7655 15.1037 64.7655 19.2806C64.7655 21.522 65.5649 23.3298 67.1364 24.6513C68.5434 25.8572 70.2593 26.5329 71.9052 27.0845L72.0912 27.1461C73.5528 27.6292 75.0643 28.1292 75.9671 28.9372C76.5952 29.5143 76.8751 30.1414 76.8751 30.9705C76.8751 32.8706 75.3788 34.1475 73.1518 34.1475C71.3914 34.1475 69.0733 33.2846 67.8469 30.8634L67.5261 30.2291L63.1555 34.2748L63.4133 34.6394C64.8077 36.6138 67.9542 39.9262 73.3591 39.9262C79.3188 39.9262 83.4814 36.0946 83.4814 30.6089C83.4814 27.4712 82.1049 25.609 80.9528 24.6025Z" fill="#6B7B84"/>
<path d="M80.9528 24.6025C79.5051 23.3198 77.4843 22.5763 75.1908 21.8051C73.5567 21.2364 72.6563 20.9232 72.056 20.3759C71.5822 19.9737 71.371 19.5371 71.371 18.96C71.371 17.696 72.2299 16.3451 74.6412 16.3451C76.2799 16.3451 77.6519 17.0458 78.7194 18.4268L79.1432 18.9752L82.6595 14.4994L82.3389 14.1783C80.1884 12.0262 77.3546 10.8892 74.1437 10.8892C67.6654 10.8892 64.7655 15.1037 64.7655 19.2806C64.7655 21.522 65.5649 23.3298 67.1364 24.6513C68.5434 25.8572 70.2593 26.5329 71.9052 27.0845L72.0912 27.1461C73.5528 27.6292 75.0643 28.1292 75.9671 28.9372C76.5952 29.5143 76.8751 30.1414 76.8751 30.9705C76.8751 32.8706 75.3788 34.1475 73.1518 34.1475C71.3914 34.1475 69.0733 33.2846 67.8469 30.8634L67.5261 30.2291L63.1555 34.2748L63.4133 34.6394C64.8077 36.6138 67.9542 39.9262 73.3591 39.9262C79.3188 39.9262 83.4814 36.0946 83.4814 30.6089C83.4814 27.4712 82.1049 25.609 80.9528 24.6025" stroke="#80949F" stroke-width="0.5"/>
</svg>
